<svg width="799" height="690" viewBox="0 0 799 690" fill="none" xmlns="http://www.w3.org/2000/svg">
<g id="undraw dev productivity umsq (1) 1">
<path id="Vector" d="M516.92 623.583C516.92 623.583 512.16 625.213 504.42 627.523C487.31 632.653 455.65 641.163 428.82 642.863C405.72 644.343 386.2 640.783 382.63 625.713C381.1 619.233 383.27 613.903 388 609.523C402.12 596.433 439 591.743 468.25 590.133C476.51 589.683 484.15 589.473 490.51 589.393C501.31 589.253 508.39 589.473 508.39 589.473L508.56 590.133L516.92 623.583Z" fill="#A0616A"/>
<path id="Vector 2" d="M436.99 672.533C418.61 695.293 342.73 647.613 316.19 629.833C310.41 625.963 306.97 623.513 306.97 623.513L331.25 591.133L338.94 580.883C338.94 580.883 345.82 584.533 355.99 590.473C356.36 590.693 356.73 590.913 357.11 591.133C365.88 596.283 376.89 603.013 388 610.523C403.33 620.893 418.83 632.723 428.82 643.863C438.59 654.753 443.08 664.983 436.99 672.533Z" fill="#A0616A"/>
<g id="me">
<path id="Vector 3" d="M434.672 191.899C475.283 191.554 507.926 158.353 507.582 117.742C507.237 77.1299 474.036 44.487 433.425 44.8314C392.813 45.1758 360.17 78.377 360.515 118.989C360.859 159.6 394.06 192.243 434.672 191.899Z" fill="#F5BCC4"/>
<path id="Vector 4" d="M379.477 155.597C379.477 155.597 394.216 259.919 373.002 271.822C351.787 283.726 499.929 283.535 499.929 283.535C499.929 283.535 466.124 193.231 480.809 165.396L379.477 155.597Z" fill="#F5BCC4"/>
<path id="Vector 5" d="M608.101 283.146L596.257 339.349L571.214 458.255L570.49 464.762L562.138 540.085L556.582 590.124L552.857 623.737C528.584 636.473 510.988 645.273 510.988 645.273C510.988 645.273 509.404 637.666 506.871 627.937C489.805 633.212 458.218 641.99 431.404 643.917C441.266 654.724 445.842 664.916 439.817 672.517C421.63 695.432 345.349 648.397 318.659 630.843C318.077 635.105 317.879 639.411 318.068 643.709L297.626 628.261L299.331 592.306L302.206 531.469L305.819 455.176C304.448 451.922 303.294 448.581 302.364 445.175C295.956 423.108 288.032 379.004 281.928 342.014C277.016 312.245 273.302 287.085 272.517 281.732C272.411 281.033 272.358 280.673 272.358 280.673L384.363 230.041C392.509 248.503 429.865 253.756 429.865 253.756C460.756 251.364 484.847 234.86 484.847 234.86L608.101 283.146Z" fill="white"/>
<path id="Vector 6" d="M372.285 49.3279L358.49 43.9402C358.49 43.9402 386.969 12.0467 426.99 14.4597L415.635 2.17041C415.635 2.17041 443.04 -9.07124 468.283 19.6141C481.553 34.6934 496.908 52.4204 506.557 72.4544L521.281 72.3296L515.251 85.913L536.874 99.2619L514.777 97.0186C516.155 104.418 516.421 111.981 515.566 119.458C514.683 126.938 510.928 133.782 505.094 138.545C505.094 138.545 487.743 103.396 487.696 97.891L487.813 111.652C487.813 111.652 473.959 99.3838 473.889 91.1274L466.471 100.824L462.593 85.7184L416.475 101.248L423.87 88.7993L395.157 93.1713L406.278 77.939C406.278 77.939 373.932 96.1035 372.811 111.251C371.689 126.399 362.299 140.822 362.299 140.822C362.299 140.822 336.213 70.2761 372.285 49.3279Z" fill="#2F2E41"/>
<path id="Vector 7" d="M690.215 540.369C682.794 548.552 664.338 560.939 641.951 574.369C633.623 579.36 624.757 584.506 615.71 589.623C594.122 601.836 571.514 613.948 552.857 623.737C528.584 636.473 510.988 645.273 510.988 645.273C510.988 645.273 509.403 637.666 506.871 627.937C503.48 614.915 498.397 598.088 493.184 590.662C493.002 590.403 492.82 590.165 492.638 589.926C491.121 587.969 489.601 586.832 488.112 586.844L562.138 540.085L594.127 519.873L570.489 464.761L540.842 395.63L557.908 339.674L575.062 283.426L608.101 283.146C608.101 283.146 619.243 306.932 633.514 340.113C635.647 345.075 637.851 350.246 640.096 355.587C669.469 425.341 706.176 522.783 690.215 540.369Z" fill="#EEEEEE"/>
<path id="Vector 8" d="M358.123 591.147C355.41 591.159 352.702 591.403 350.029 591.875C327.074 596.02 320.47 616.887 318.659 630.843C318.077 635.105 317.879 639.411 318.068 643.708L297.626 628.261L290.178 622.634C272.316 616.575 256.353 605.68 242.483 592.787C230.449 581.403 219.634 568.796 210.213 555.17C200.831 541.74 192.448 527.639 185.134 512.981C183.094 508.89 181.977 504.401 181.864 499.831C181.751 495.261 182.644 490.722 184.48 486.535L209.154 430.274L245.218 348.045C245.471 346.093 245.752 344.184 246.059 342.318C252.995 300.458 272.367 281.733 272.367 281.733L287.286 281.606L297.778 341.879L310.813 416.762L302.364 445.174L282.839 510.792L302.205 531.469L358.123 591.147Z" fill="#EEEEEE"/>
</g>
<path id="Vector 9" d="M372.877 415.753L385.631 430.633C390.37 429.73 395.319 428.668 400.416 427.476L396.752 415.753L405.71 426.203C459.707 412.922 526.637 387.102 526.637 387.102C526.637 387.102 454.379 392.4 400.428 380.613C376.558 375.398 351.998 387.231 342.202 409.615C336.508 422.626 337.403 433.898 357.596 433.898C364.419 433.782 371.223 433.142 377.949 431.984L372.877 415.753Z" fill="#38D39F"/>
<path id="Vector 10" d="M663.65 660.333V666.403C663.654 668.069 663.345 669.721 662.74 671.273C662.472 671.965 662.147 672.634 661.77 673.273C660.578 675.273 658.887 676.93 656.862 678.08C654.838 679.23 652.549 679.834 650.22 679.833H203.67C201.342 679.834 199.053 679.23 197.028 678.08C195.003 676.93 193.312 675.273 192.12 673.273C191.743 672.634 191.419 671.965 191.15 671.273C190.546 669.721 190.237 668.069 190.24 666.403V660.333C190.24 658.569 190.587 656.823 191.262 655.193C191.936 653.563 192.926 652.083 194.173 650.835C195.42 649.588 196.901 648.599 198.53 647.924C200.16 647.249 201.906 646.902 203.67 646.903H229.41V644.073C229.41 643.999 229.425 643.926 229.453 643.858C229.481 643.79 229.522 643.729 229.574 643.677C229.626 643.625 229.688 643.583 229.756 643.555C229.824 643.527 229.897 643.513 229.97 643.513H243.4C243.474 643.513 243.547 643.527 243.615 643.555C243.683 643.583 243.745 643.625 243.797 643.677C243.849 643.729 243.89 643.79 243.918 643.858C243.946 643.926 243.96 643.999 243.96 644.073V646.903H252.35V644.073C252.35 643.999 252.365 643.926 252.393 643.858C252.421 643.79 252.462 643.729 252.514 643.677C252.566 643.625 252.628 643.583 252.696 643.555C252.764 643.527 252.837 643.513 252.91 643.513H266.34C266.414 643.513 266.487 643.527 266.555 643.555C266.623 643.583 266.684 643.625 266.736 643.677C266.789 643.729 266.83 643.79 266.858 643.858C266.886 643.926 266.9 643.999 266.9 644.073V646.903H275.3V644.073C275.3 643.999 275.315 643.926 275.343 643.858C275.371 643.79 275.412 643.729 275.464 643.677C275.516 643.625 275.578 643.583 275.646 643.555C275.714 643.527 275.787 643.513 275.86 643.513H289.29C289.364 643.513 289.437 643.527 289.505 643.555C289.573 643.583 289.634 643.625 289.686 643.677C289.739 643.729 289.78 643.79 289.808 643.858C289.836 643.926 289.85 643.999 289.85 644.073V646.903H298.24V644.073C298.24 643.999 298.255 643.926 298.283 643.858C298.311 643.79 298.352 643.729 298.404 643.677C298.456 643.625 298.518 643.583 298.586 643.555C298.654 643.527 298.727 643.513 298.8 643.513H312.23C312.304 643.513 312.377 643.527 312.445 643.555C312.513 643.583 312.574 643.625 312.626 643.677C312.678 643.729 312.72 643.79 312.748 643.858C312.776 643.926 312.79 643.999 312.79 644.073V646.903H321.18V644.073C321.18 643.999 321.194 643.926 321.223 643.858C321.251 643.79 321.292 643.729 321.344 643.677C321.396 643.625 321.458 643.583 321.526 643.555C321.594 643.527 321.667 643.513 321.74 643.513H335.17C335.244 643.513 335.317 643.527 335.385 643.555C335.453 643.583 335.514 643.625 335.566 643.677C335.618 643.729 335.66 643.79 335.688 643.858C335.716 643.926 335.73 643.999 335.73 644.073V646.903H344.13V644.073C344.13 643.999 344.145 643.926 344.173 643.858C344.201 643.79 344.242 643.729 344.294 643.677C344.346 643.625 344.408 643.583 344.476 643.555C344.544 643.527 344.617 643.513 344.69 643.513H358.12C358.194 643.513 358.267 643.527 358.335 643.555C358.403 643.583 358.464 643.625 358.516 643.677C358.569 643.729 358.61 643.79 358.638 643.858C358.666 643.926 358.68 643.999 358.68 644.073V646.903H367.07V644.073C367.07 643.999 367.085 643.926 367.113 643.858C367.141 643.79 367.182 643.729 367.234 643.677C367.286 643.625 367.348 643.583 367.416 643.555C367.484 643.527 367.557 643.513 367.63 643.513H472.83C472.904 643.513 472.977 643.527 473.045 643.555C473.113 643.583 473.174 643.625 473.227 643.677C473.279 643.729 473.32 643.79 473.348 643.858C473.376 643.926 473.39 643.999 473.39 644.073V646.903H481.79V644.073C481.79 643.999 481.804 643.926 481.833 643.858C481.861 643.79 481.902 643.729 481.954 643.677C482.006 643.625 482.068 643.583 482.136 643.555C482.204 643.527 482.277 643.513 482.35 643.513H495.78C495.928 643.514 496.07 643.574 496.175 643.679C496.279 643.783 496.339 643.925 496.34 644.073V646.903H504.73V644.073C504.73 643.999 504.745 643.926 504.773 643.858C504.801 643.79 504.842 643.729 504.894 643.677C504.946 643.625 505.008 643.583 505.076 643.555C505.144 643.527 505.217 643.513 505.29 643.513H518.72C518.794 643.513 518.867 643.527 518.935 643.555C519.003 643.583 519.065 643.625 519.117 643.677C519.169 643.729 519.21 643.79 519.238 643.858C519.266 643.926 519.28 643.999 519.28 644.073V646.903H527.67V644.073C527.67 643.999 527.685 643.926 527.713 643.858C527.741 643.79 527.782 643.729 527.834 643.677C527.886 643.625 527.948 643.583 528.016 643.555C528.084 643.527 528.157 643.513 528.23 643.513H541.66C541.734 643.513 541.807 643.527 541.875 643.555C541.943 643.583 542.005 643.625 542.057 643.677C542.109 643.729 542.15 643.79 542.178 643.858C542.206 643.926 542.22 643.999 542.22 644.073V646.903H550.62V644.073C550.62 643.999 550.635 643.926 550.663 643.858C550.691 643.79 550.732 643.729 550.784 643.677C550.836 643.625 550.898 643.583 550.966 643.555C551.034 643.527 551.107 643.513 551.18 643.513H564.61C564.757 643.515 564.898 643.575 565.001 643.68C565.104 643.784 565.161 643.926 565.16 644.073V646.903H573.56V644.073C573.56 643.999 573.575 643.926 573.603 643.858C573.631 643.79 573.672 643.729 573.724 643.677C573.776 643.625 573.838 643.583 573.906 643.555C573.974 643.527 574.047 643.513 574.12 643.513H587.55C587.624 643.513 587.697 643.527 587.765 643.555C587.833 643.583 587.895 643.625 587.947 643.677C587.999 643.729 588.04 643.79 588.068 643.858C588.096 643.926 588.11 643.999 588.11 644.073V646.903H596.5V644.073C596.5 643.999 596.515 643.926 596.543 643.858C596.571 643.79 596.612 643.729 596.664 643.677C596.716 643.625 596.778 643.583 596.846 643.555C596.914 643.527 596.987 643.513 597.06 643.513H610.49C610.564 643.513 610.637 643.527 610.705 643.555C610.773 643.583 610.835 643.625 610.887 643.677C610.939 643.729 610.98 643.79 611.008 643.858C611.036 643.926 611.05 643.999 611.05 644.073V646.903H650.22C651.984 646.902 653.731 647.249 655.36 647.924C656.99 648.599 658.471 649.588 659.718 650.835C660.965 652.083 661.954 653.563 662.629 655.193C663.304 656.823 663.651 658.569 663.65 660.333Z" fill="#3F3D56"/>
<path id="Vector 11" d="M793.5 671.273H60.5V673.273H793.5V671.273Z" fill="#3F3D56"/>
<path id="Vector 12" d="M627.694 404.704H461.251V401.273H385.78V404.704H218.651C215.665 404.704 212.801 405.89 210.69 408.001C208.578 410.113 207.392 412.976 207.392 415.962V643.874C207.392 646.86 208.578 649.723 210.69 651.835C212.801 653.946 215.665 655.132 218.651 655.132H627.694C630.68 655.132 633.544 653.946 635.655 651.835C637.767 649.723 638.953 646.86 638.953 643.874V415.962C638.953 414.484 638.662 413.02 638.096 411.654C637.53 410.288 636.701 409.047 635.655 408.001C634.61 406.956 633.369 406.127 632.003 405.561C630.637 404.995 629.173 404.704 627.694 404.704Z" fill="#3F3D56"/>
<path id="Vector 13" d="M423.5 509.273C437.307 509.273 448.5 498.08 448.5 484.273C448.5 470.466 437.307 459.273 423.5 459.273C409.693 459.273 398.5 470.466 398.5 484.273C398.5 498.08 409.693 509.273 423.5 509.273Z" stroke="#D0CDE1" stroke-width="2" stroke-miterlimit="10"/>
<path id="Vector 14" d="M415.5 518.273C429.307 518.273 440.5 507.08 440.5 493.273C440.5 479.466 429.307 468.273 415.5 468.273C401.693 468.273 390.5 479.466 390.5 493.273C390.5 507.08 401.693 518.273 415.5 518.273Z" fill="#D0CDE1"/>
<path id="Vector 15" d="M108.446 661.17H80.4463V689.17H108.446V661.17Z" fill="#D0CDE1"/>
<path id="Vector 16" d="M91.4502 639.17V673.17H125.45V639.17H91.4502ZM123.97 671.69H92.9202V640.65H123.97V671.69Z" fill="#3F3D56"/>
<path id="Vector 17" d="M756.446 661.17H728.446V689.17H756.446V661.17Z" fill="#D0CDE1"/>
<path id="Vector 18" d="M739.45 639.17V673.17H773.45V639.17H739.45ZM771.97 671.69H740.92V640.65H771.97V671.69Z" fill="#3F3D56"/>
<path id="Vector 19" d="M94.5802 230.06C138.399 230.06 173.921 194.539 173.921 150.72C173.921 106.902 138.399 71.3793 94.5802 71.3793C50.7617 71.3793 15.2397 106.902 15.2397 150.72C15.2397 194.539 50.7617 230.06 94.5802 230.06Z" fill="#38D39F"/>
<path id="Vector 20" d="M122.229 56.4367C115.045 55.5231 107.774 55.5231 100.59 56.4367C84.586 58.5381 69.5203 65.1866 57.181 75.5933C44.8417 86 35.7467 99.7281 30.9754 115.149C28.8053 122.176 27.5764 129.461 27.3208 136.811C27.2848 137.833 27.2607 138.867 27.2607 139.901C27.283 162.211 36.1559 183.602 51.932 199.378C67.7082 215.154 89.0989 224.027 111.41 224.05C113.201 224.05 114.992 223.989 116.759 223.881C120.907 223.621 125.03 223.05 129.093 222.174C148.495 218.002 165.798 207.108 177.947 191.415C190.095 175.723 196.308 156.242 195.487 136.414C194.665 116.585 186.863 97.6848 173.459 83.0507C160.054 68.4166 141.909 58.9903 122.229 56.4367ZM137.748 217.294H137.736C130.959 219.606 123.905 221.009 116.759 221.465C114.992 221.585 113.201 221.645 111.41 221.645C89.7377 221.619 68.961 212.998 53.6367 197.674C38.3123 182.349 29.6914 161.573 29.6649 139.901C29.6649 138.867 29.689 137.833 29.725 136.811C30.5514 115.691 39.5156 95.7085 54.7411 81.0476C69.9666 66.3868 90.273 58.1838 111.41 58.1557C130.776 58.1568 149.513 65.0333 164.283 77.5599C179.052 90.0866 188.895 107.45 192.057 126.557C195.219 145.663 191.496 165.272 181.55 181.889C171.604 198.506 156.081 211.053 137.748 217.294Z" fill="#3F3D56"/>
<path id="Vector 21" d="M112.612 62.9644H110.208V79.7942H112.612V62.9644Z" fill="#3F3D56"/>
<path id="Vector 22" d="M57.8578 84.6486L56.1577 86.3487L68.0582 98.2491L69.7582 96.549L57.8578 84.6486Z" fill="#3F3D56"/>
<path id="Vector 23" d="M34.4736 138.698V141.103H51.3034V138.698H34.4736Z" fill="#3F3D56"/>
<path id="Vector 24" d="M56.1578 193.453L57.8579 195.153L69.7584 183.253L68.0583 181.553L56.1578 193.453Z" fill="#3F3D56"/>
<path id="Vector 25" d="M153.062 96.5489L154.762 98.2489L166.662 86.3485L164.962 84.6484L153.062 96.5489Z" fill="#3F3D56"/>
<path id="Vector 26" d="M171.516 138.698V141.103H188.346V138.698H171.516Z" fill="#3F3D56"/>
<path id="Vector 27" d="M154.762 181.552L153.062 183.252L164.962 195.153L166.662 193.453L154.762 181.552Z" fill="#3F3D56"/>
<path id="Vector 28" d="M112.612 200.007H110.208V216.837H112.612V200.007Z" fill="#3F3D56"/>
<path id="Vector 29" d="M115.016 135.092C113.976 134.312 112.711 133.89 111.41 133.89C110.11 133.89 108.844 134.312 107.804 135.092C107.091 135.633 106.505 136.322 106.085 137.112C105.552 138.128 105.322 139.276 105.421 140.42C105.52 141.563 105.944 142.654 106.644 143.564C107.343 144.474 108.288 145.165 109.368 145.555C110.447 145.944 111.616 146.017 112.735 145.764C113.855 145.511 114.878 144.943 115.685 144.126C116.492 143.31 117.048 142.28 117.288 141.157C117.528 140.035 117.441 138.867 117.039 137.793C116.636 136.718 115.935 135.781 115.017 135.092H115.016ZM111.41 143.507C110.454 143.504 109.539 143.123 108.863 142.448C108.187 141.772 107.807 140.856 107.804 139.901C107.808 139.171 108.03 138.46 108.441 137.857C108.793 137.347 109.271 136.936 109.828 136.665C110.386 136.393 111.004 136.27 111.623 136.308C112.241 136.345 112.84 136.541 113.361 136.878C113.881 137.214 114.307 137.679 114.595 138.228C114.883 138.777 115.025 139.391 115.007 140.01C114.989 140.63 114.811 141.234 114.491 141.765C114.17 142.296 113.719 142.735 113.179 143.04C112.639 143.345 112.03 143.506 111.41 143.507Z" fill="#3F3D56"/>
<path id="Vector 30" d="M122.229 35.3154H100.591V56.9537H122.229V35.3154Z" fill="#3F3D56"/>
<path id="Vector 31" d="M111.41 38.9216C127.344 38.9216 140.261 34.3468 140.261 28.7035C140.261 23.0602 127.344 18.4854 111.41 18.4854C95.4757 18.4854 82.5586 23.0602 82.5586 28.7035C82.5586 34.3468 95.4757 38.9216 111.41 38.9216Z" fill="#3F3D56"/>
<path id="clock arrow" d="M115 85.9468H108V134.947H115V85.9468Z" fill="#3F3D56"/>
<path id="Vector 32" d="M226 220.387H0V222.791H226V220.387Z" fill="#3F3D56"/>
<g id="plant left">
<path id="Vector 33" d="M150.594 599.701C151.527 631.651 132.858 643.36 109.43 644.044C108.886 644.06 108.344 644.07 107.805 644.073C106.719 644.082 105.643 644.064 104.577 644.019C83.3891 643.14 66.6172 631.892 65.7495 602.179C64.8515 571.429 103.018 531.476 105.882 528.521L105.887 528.518C105.996 528.405 106.052 528.349 106.052 528.349C106.052 528.349 149.661 567.754 150.594 599.701Z" fill="#D0CDE1"/>
<path id="Vector 34" d="M107.744 639.202L122.626 617.071L107.774 641.583L107.805 644.073C106.719 644.082 105.643 644.064 104.577 644.019L105.315 612.007L105.295 611.76L105.322 611.713L105.393 608.688L89.0952 585.025L105.374 606.424L105.432 607.063L105.989 582.877L91.9122 558.344L106.029 578.628L105.882 528.521V528.354L105.887 528.518L106.821 568.009L119.651 551.968L106.863 571.411L107.143 593.045L118.949 571.931L107.187 596.226L107.343 608.255L124.512 578.844L107.395 612.452L107.744 639.202Z" fill="#3F3D56"/>
</g>
<g id="plant right">
<path id="Vector 35" d="M798.594 599.701C799.527 631.651 780.858 643.36 757.43 644.044C756.886 644.06 756.344 644.07 755.805 644.073C754.719 644.082 753.643 644.064 752.577 644.019C731.389 643.14 714.617 631.892 713.749 602.179C712.851 571.429 751.018 531.476 753.882 528.521L753.887 528.518C753.996 528.405 754.052 528.349 754.052 528.349C754.052 528.349 797.661 567.754 798.594 599.701Z" fill="#D0CDE1"/>
<path id="Vector 36" d="M755.744 639.202L770.626 617.071L755.774 641.583L755.805 644.073C754.719 644.082 753.643 644.064 752.577 644.019L753.315 612.007L753.295 611.76L753.323 611.713L753.393 608.688L737.095 585.025L753.374 606.424L753.432 607.063L753.989 582.877L739.912 558.344L754.029 578.628L753.882 528.521V528.354L753.887 528.518L754.821 568.009L767.651 551.968L754.864 571.411L755.143 593.045L766.949 571.931L755.187 596.226L755.343 608.255L772.512 578.844L755.395 612.452L755.744 639.202Z" fill="#3F3D56"/>
</g>
</g>
</svg>
